<svg width="241" height="172" viewBox="0 0 241 172" fill="none" xmlns="http://www.w3.org/2000/svg">
<g filter="url(#filter0_d_4_46)">
<path d="M48 50.5C72.0353 50.5 91.5 69.5387 91.5 93C91.5 116.461 72.0353 135.5 48 135.5C23.9647 135.5 4.5 116.461 4.5 93C4.5 69.5387 23.9647 50.5 48 50.5Z" fill="#FCF1F1" stroke="#B7E3E0"/>
<path d="M102 0.5C135.506 0.5 162.5 22.97 162.5 50.5C162.5 78.03 135.506 100.5 102 100.5C68.4942 100.5 41.5 78.03 41.5 50.5C41.5 22.97 68.4942 0.5 102 0.5Z" fill="#FCF1F1" stroke="#B7E3E0"/>
<path d="M182.5 50.5C212.44 50.5 236.5 69.6318 236.5 93C236.5 116.368 212.44 135.5 182.5 135.5C152.56 135.5 128.5 116.368 128.5 93C128.5 69.6318 152.56 50.5 182.5 50.5Z" fill="#FCF1F1" stroke="#B7E3E0"/>
<path d="M108.5 78.5C134.505 78.5 155.5 97.5736 155.5 121C155.5 144.426 134.505 163.5 108.5 163.5C82.4946 163.5 61.5 144.426 61.5 121C61.5 97.5736 82.4946 78.5 108.5 78.5Z" fill="#FCF1F1" stroke="#B7E3E0"/>
<path d="M171.5 17.5C190.292 17.5 205.5 32.2884 205.5 50.5C205.5 68.7116 190.292 83.5 171.5 83.5C152.708 83.5 137.5 68.7116 137.5 50.5C137.5 32.2884 152.708 17.5 171.5 17.5Z" fill="#FCF1F1" stroke="#B7E3E0"/>
</g>
<defs>
<filter id="filter0_d_4_46" x="0" y="0" width="241" height="172" filterUnits="userSpaceOnUse" color-interpolation-filters="sRGB">
<feFlood flood-opacity="0" result="BackgroundImageFix"/>
<feColorMatrix in="SourceAlpha" type="matrix" values="0 0 0 0 0 0 0 0 0 0 0 0 0 0 0 0 0 0 127 0" result="hardAlpha"/>
<feOffset dy="4"/>
<feGaussianBlur stdDeviation="2"/>
<feComposite in2="hardAlpha" operator="out"/>
<feColorMatrix type="matrix" values="0 0 0 0 0 0 0 0 0 0 0 0 0 0 0 0 0 0 0.25 0"/>
<feBlend mode="normal" in2="BackgroundImageFix" result="effect1_dropShadow_4_46"/>
<feBlend mode="normal" in="SourceGraphic" in2="effect1_dropShadow_4_46" result="shape"/>
</filter>
</defs>
</svg>
