<svg width="220" height="124" viewBox="0 0 220 124" fill="none" xmlns="http://www.w3.org/2000/svg">
<g filter="url(#filter0_d_4_47)">
<path d="M73 0.5C97.0087 0.5 116.5 20.6313 116.5 45.5C116.5 70.3687 97.0087 90.5 73 90.5C48.9913 90.5 29.5 70.3687 29.5 45.5C29.5 20.6313 48.9913 0.5 73 0.5Z" fill="#FCF1F1" stroke="#B7E3E0"/>
<path d="M136.5 46.5C154.159 46.5 168.5 61.2602 168.5 79.5C168.5 97.7398 154.159 112.5 136.5 112.5C118.841 112.5 104.5 97.7398 104.5 79.5C104.5 61.2602 118.841 46.5 136.5 46.5Z" fill="#FCF1F1" stroke="#B7E3E0"/>
<path d="M131.5 0.5C156.415 0.5 176.5 18.2433 176.5 40C176.5 61.7567 156.415 79.5 131.5 79.5C106.585 79.5 86.5 61.7567 86.5 40C86.5 18.2433 106.585 0.5 131.5 0.5Z" fill="#FCF1F1" stroke="#B7E3E0"/>
<path d="M60.5 46.5C76.0241 46.5 90.055 50.3994 100.188 56.6768C110.329 62.9588 116.5 71.5719 116.5 81C116.5 93.7789 110.297 102.371 100.215 107.798C90.0969 113.245 76.0686 115.5 60.5 115.5C44.9759 115.5 30.945 111.601 20.8115 105.323C10.6707 99.0412 4.5 90.4281 4.5 81C4.5 71.5719 10.6707 62.9588 20.8115 56.6768C30.945 50.3994 44.9759 46.5 60.5 46.5Z" fill="#FCF1F1" stroke="#B7E3E0"/>
<path d="M174 40.5C185.498 40.5 195.89 44.0518 203.396 49.7705C210.901 55.4889 215.5 63.3528 215.5 72C215.5 80.6472 210.901 88.5111 203.396 94.2295C195.89 99.9482 185.498 103.5 174 103.5C162.502 103.5 152.11 99.9482 144.604 94.2295C137.099 88.5111 132.5 80.6472 132.5 72C132.5 63.3528 137.099 55.4889 144.604 49.7705C152.11 44.0518 162.502 40.5 174 40.5Z" fill="#FCF1F1" stroke="#B7E3E0"/>
</g>
<defs>
<filter id="filter0_d_4_47" x="0" y="0" width="220" height="124" filterUnits="userSpaceOnUse" color-interpolation-filters="sRGB">
<feFlood flood-opacity="0" result="BackgroundImageFix"/>
<feColorMatrix in="SourceAlpha" type="matrix" values="0 0 0 0 0 0 0 0 0 0 0 0 0 0 0 0 0 0 127 0" result="hardAlpha"/>
<feOffset dy="4"/>
<feGaussianBlur stdDeviation="2"/>
<feComposite in2="hardAlpha" operator="out"/>
<feColorMatrix type="matrix" values="0 0 0 0 0 0 0 0 0 0 0 0 0 0 0 0 0 0 0.25 0"/>
<feBlend mode="normal" in2="BackgroundImageFix" result="effect1_dropShadow_4_47"/>
<feBlend mode="normal" in="SourceGraphic" in2="effect1_dropShadow_4_47" result="shape"/>
</filter>
</defs>
</svg>
