<svg width="206" height="114" viewBox="0 0 206 114" fill="none" xmlns="http://www.w3.org/2000/svg">
<g filter="url(#filter0_d_7_50)">
<path d="M91.8161 0.5C113.645 0.500021 131.372 18.8731 131.373 41.5771C131.373 64.2814 113.645 82.6553 91.8161 82.6553C69.987 82.6553 52.2594 64.2814 52.2594 41.5771C52.2597 18.8731 69.9871 0.5 91.8161 0.5Z" fill="#FCF1F1" stroke="#B7E3E0"/>
<path d="M158.5 43.5C170.418 43.5 181.188 46.9988 188.966 52.6309C196.744 58.2634 201.5 66.0019 201.5 74.5C201.5 82.9981 196.744 90.7366 188.966 96.3691C181.188 102.001 170.418 105.5 158.5 105.5C146.582 105.5 135.812 102.001 128.034 96.3691C120.256 90.7366 115.5 82.9981 115.5 74.5C115.5 66.0019 120.256 58.2634 128.034 52.6309C135.812 46.9988 146.582 43.5 158.5 43.5Z" fill="#FCF1F1" stroke="#B7E3E0"/>
<path d="M145.073 0.5C167.734 0.5 185.996 16.6979 185.996 36.5518C185.996 56.4056 167.734 72.6035 145.073 72.6035C122.412 72.6034 104.151 56.4055 104.151 36.5518C104.151 16.698 122.412 0.50014 145.073 0.5Z" fill="#FCF1F1" stroke="#B7E3E0"/>
<path d="M80.4365 42.5345C94.5618 42.5345 107.326 46.0955 116.543 51.8265C125.767 57.5621 131.373 65.4211 131.373 74.0169C131.373 85.6775 125.735 93.5148 116.569 98.4671C107.368 103.439 94.6065 105.5 80.4365 105.5C66.311 105.5 53.5461 101.939 44.3291 96.2083C35.1047 90.4727 29.5 82.6128 29.5 74.0169C29.5001 65.4211 35.1049 57.5621 44.3291 51.8265C53.5461 46.0954 66.311 42.5345 80.4365 42.5345Z" fill="#FCF1F1" stroke="#B7E3E0"/>
<path d="M42.2363 14.5C52.6946 14.5001 62.1442 17.7428 68.9688 22.9619C75.7929 28.1808 79.9716 35.355 79.9717 43.2412C79.9717 51.1275 75.7929 58.3016 68.9688 63.5205C62.1442 68.7397 52.6946 71.9823 42.2363 71.9824C31.7778 71.9824 22.3276 68.7398 15.5029 63.5205C8.6788 58.3016 4.5 51.1275 4.5 43.2412C4.50006 35.355 8.67877 28.1808 15.5029 22.9619C22.3276 17.7427 31.7778 14.5 42.2363 14.5Z" fill="#FCF1F1" stroke="#B7E3E0"/>
</g>
<defs>
<filter id="filter0_d_7_50" x="0" y="0" width="206" height="114" filterUnits="userSpaceOnUse" color-interpolation-filters="sRGB">
<feFlood flood-opacity="0" result="BackgroundImageFix"/>
<feColorMatrix in="SourceAlpha" type="matrix" values="0 0 0 0 0 0 0 0 0 0 0 0 0 0 0 0 0 0 127 0" result="hardAlpha"/>
<feOffset dy="4"/>
<feGaussianBlur stdDeviation="2"/>
<feComposite in2="hardAlpha" operator="out"/>
<feColorMatrix type="matrix" values="0 0 0 0 0 0 0 0 0 0 0 0 0 0 0 0 0 0 0.25 0"/>
<feBlend mode="normal" in2="BackgroundImageFix" result="effect1_dropShadow_7_50"/>
<feBlend mode="normal" in="SourceGraphic" in2="effect1_dropShadow_7_50" result="shape"/>
</filter>
</defs>
</svg>
