<svg width="179" height="171" viewBox="0 0 179 171" fill="none" xmlns="http://www.w3.org/2000/svg">
<g filter="url(#filter0_d_12_6)">
<mask id="path-1-inside-1_12_6" fill="white">
<path d="M64.7559 0C45.4728 13.7664 32.9034 36.3144 32.9033 61.7949C32.9033 103.715 66.9247 137.699 108.892 137.699C137.224 137.699 161.933 122.209 174.999 99.2461C165.815 135.826 131.563 163 90.71 163C42.8214 163 4 125.66 4 79.5996C4.00007 42.2352 29.5464 10.6099 64.7559 0Z"/>
</mask>
<path d="M64.7559 0C45.4728 13.7664 32.9034 36.3144 32.9033 61.7949C32.9033 103.715 66.9247 137.699 108.892 137.699C137.224 137.699 161.933 122.209 174.999 99.2461C165.815 135.826 131.563 163 90.71 163C42.8214 163 4 125.66 4 79.5996C4.00007 42.2352 29.5464 10.6099 64.7559 0Z" fill="#E1A05E"/>
<path d="M64.7559 0L65.3369 0.813877L64.4673 -0.957473L64.7559 0ZM32.9033 61.7949L31.9033 61.7949V61.7949H32.9033ZM108.892 137.699V138.699H108.892L108.892 137.699ZM174.999 99.2461L175.969 99.4896L174.13 98.7515L174.999 99.2461ZM90.71 163V164V163ZM4 79.5996H3H4ZM64.7559 0L64.1748 -0.813877C44.6404 13.132 31.9034 35.9775 31.9033 61.7949L32.9033 61.7949L33.9033 61.7949C33.9034 36.6514 46.3052 14.4008 65.3369 0.813877L64.7559 0ZM32.9033 61.7949H31.9033C31.9033 104.269 66.3734 138.699 108.892 138.699V137.699V136.699C67.4759 136.699 33.9033 103.162 33.9033 61.7949H32.9033ZM108.892 137.699L108.892 138.699C137.598 138.699 162.632 123.004 175.868 99.7406L174.999 99.2461L174.13 98.7515C161.235 121.415 136.85 136.699 108.892 136.699L108.892 137.699ZM174.999 99.2461L174.029 99.0026C164.96 135.125 131.118 162 90.71 162V163V164C132.007 164 166.67 136.528 175.969 99.4896L174.999 99.2461ZM90.71 163V162C43.3366 162 5 125.072 5 79.5996H4H3C3 126.249 42.3061 164 90.71 164V163ZM4 79.5996H5C5.00007 42.7105 30.2237 11.4502 65.0444 0.957473L64.7559 0L64.4673 -0.957473C28.869 9.76959 3.00007 41.76 3 79.5996H4Z" fill="#B7E3E0" mask="url(#path-1-inside-1_12_6)"/>
</g>
<defs>
<filter id="filter0_d_12_6" x="0" y="0" width="178.999" height="171" filterUnits="userSpaceOnUse" color-interpolation-filters="sRGB">
<feFlood flood-opacity="0" result="BackgroundImageFix"/>
<feColorMatrix in="SourceAlpha" type="matrix" values="0 0 0 0 0 0 0 0 0 0 0 0 0 0 0 0 0 0 127 0" result="hardAlpha"/>
<feOffset dy="4"/>
<feGaussianBlur stdDeviation="2"/>
<feComposite in2="hardAlpha" operator="out"/>
<feColorMatrix type="matrix" values="0 0 0 0 0 0 0 0 0 0 0 0 0 0 0 0 0 0 0.25 0"/>
<feBlend mode="normal" in2="BackgroundImageFix" result="effect1_dropShadow_12_6"/>
<feBlend mode="normal" in="SourceGraphic" in2="effect1_dropShadow_12_6" result="shape"/>
</filter>
</defs>
</svg>
