<svg width="82" height="73" viewBox="0 0 82 73" fill="none" xmlns="http://www.w3.org/2000/svg">
<g filter="url(#filter0_d_12_16)">
<path d="M38.652 2.4236C39.4521 0.234655 42.5479 0.234658 43.348 2.4236L50.503 21.9976C50.8634 22.9835 51.8013 23.6393 52.8511 23.6393H75.3183C77.8107 23.6393 78.7683 26.8873 76.6746 28.2394L59.0244 39.6382C58.0435 40.2717 57.6318 41.4999 58.0327 42.5966L64.8901 61.3565C65.7134 63.6089 63.2003 65.616 61.1857 64.3149L42.3563 52.1546C41.5307 51.6214 40.4693 51.6214 39.6437 52.1546L20.8143 64.3149C18.7997 65.616 16.2866 63.6089 17.1099 61.3565L23.9673 42.5966C24.3682 41.4999 23.9565 40.2717 22.9756 39.6382L5.32541 28.2394C3.23168 26.8873 4.1893 23.6393 6.6817 23.6393H29.1489C30.1987 23.6393 31.1366 22.9835 31.497 21.9976L38.652 2.4236Z" fill="#E1A05E"/>
<path d="M39.1211 2.5957C39.7612 0.84455 42.2388 0.844547 42.8789 2.5957L50.0332 22.1689C50.4657 23.3521 51.5919 24.1396 52.8516 24.1396H75.3184C77.3122 24.1397 78.0783 26.7376 76.4033 27.8193L58.7529 39.2178C57.5758 39.978 57.0824 41.4525 57.5635 42.7686L64.4209 61.5283C65.0792 63.3302 63.0686 64.9353 61.457 63.8945L42.6279 51.7344C41.6372 51.0946 40.3628 51.0946 39.3721 51.7344L20.543 63.8945C18.9314 64.9353 16.9208 63.3301 17.5791 61.5283L24.4365 42.7686C24.9176 41.4525 24.4242 39.978 23.2471 39.2178L5.59668 27.8193C3.92175 26.7376 4.68777 24.1397 6.68164 24.1396H29.1484C30.4081 24.1396 31.5343 23.3521 31.9668 22.1689L39.1211 2.5957Z" stroke="#B7E3E0"/>
</g>
<defs>
<filter id="filter0_d_12_16" x="0.177173" y="0.781891" width="81.6457" height="71.944" filterUnits="userSpaceOnUse" color-interpolation-filters="sRGB">
<feFlood flood-opacity="0" result="BackgroundImageFix"/>
<feColorMatrix in="SourceAlpha" type="matrix" values="0 0 0 0 0 0 0 0 0 0 0 0 0 0 0 0 0 0 127 0" result="hardAlpha"/>
<feOffset dy="4"/>
<feGaussianBlur stdDeviation="2"/>
<feComposite in2="hardAlpha" operator="out"/>
<feColorMatrix type="matrix" values="0 0 0 0 0 0 0 0 0 0 0 0 0 0 0 0 0 0 0.25 0"/>
<feBlend mode="normal" in2="BackgroundImageFix" result="effect1_dropShadow_12_16"/>
<feBlend mode="normal" in="SourceGraphic" in2="effect1_dropShadow_12_16" result="shape"/>
</filter>
</defs>
</svg>
